<svg width="323" height="65" viewBox="0 0 323 65" fill="none" xmlns="http://www.w3.org/2000/svg">
<path d="M307.729 22.7499C317.816 22.7499 322.859 27.8988 322.859 38.1965C322.859 39.1433 322.814 40.09 322.724 41.0368C322.654 41.7691 322.027 42.3114 321.291 42.3114H301.986C301.172 42.3114 300.492 42.9782 300.638 43.7787C301.315 47.4851 304.712 49.3383 310.831 49.3383C313.603 49.3383 316.374 49.1224 319.145 48.6904C320.058 48.5483 320.897 49.2428 320.897 50.166V53.8466C320.897 54.5405 320.413 55.1434 319.73 55.265C317.033 55.7453 313.856 55.9854 310.198 55.9854C298.149 55.9854 292.124 50.3196 292.124 38.9878C292.124 28.1625 297.326 22.7499 307.729 22.7499ZM300.73 34.9067C300.559 35.7493 301.248 36.4872 302.108 36.4872H314.44C314.58 36.4872 314.693 36.3739 314.693 36.234C314.693 31.6338 312.372 29.3337 307.729 29.3337C303.818 29.3337 301.485 31.1914 300.73 34.9067Z" fill="white"/>
<path d="M272.151 18.8422C272.151 18.0285 272.811 17.3689 273.625 17.3689H277.189C277.872 17.3689 278.466 17.8392 278.623 18.5048L279.354 21.614C279.511 22.2796 280.105 22.7499 280.788 22.7499H286.505C287.318 22.7499 287.978 23.4095 287.978 24.2232V27.9237C287.978 28.7374 287.318 29.397 286.505 29.397H282.013C281.199 29.397 280.539 30.0566 280.539 30.8703V44.6853C280.539 47.7873 281.879 49.3383 284.559 49.3383H286.505C287.318 49.3383 287.978 49.9979 287.978 50.8116V54.5121C287.978 55.3258 287.318 55.9854 286.505 55.9854H280.508C274.937 55.9854 272.151 52.9995 272.151 47.0277V18.8422Z" fill="white"/>
<path d="M235.086 45.6349C235.086 39.03 239.897 35.7276 249.52 35.7276C251.194 35.7276 252.868 35.8436 254.542 36.0756C255.456 36.2022 256.293 35.5086 256.293 34.5864V33.8601C256.293 30.8847 254.152 29.397 249.868 29.397C246.742 29.397 243.318 29.7884 239.597 30.5712C238.665 30.7671 237.776 30.066 237.776 29.1144V25.4962C237.776 24.814 238.245 24.2193 238.911 24.072C242.898 23.1906 246.55 22.7499 249.868 22.7499C259.744 22.7499 264.681 26.4005 264.681 33.7018V54.5121C264.681 55.3258 264.022 55.9854 263.208 55.9854H260.417C260.026 55.9854 259.652 55.8302 259.375 55.5539L257.697 53.8758C257.195 53.374 256.41 53.3074 255.799 53.6686C253.187 55.2132 250.345 55.9854 247.272 55.9854C239.148 55.9854 235.086 52.5353 235.086 45.6349ZM256.293 43.266C256.293 42.5637 255.798 41.9553 255.105 41.8452C253.341 41.5651 251.479 41.4251 249.52 41.4251C245.489 41.4251 243.474 42.7967 243.474 45.54C243.474 48.4942 245.162 49.9714 248.538 49.9714C251.085 49.9714 253.464 49.2484 255.675 47.8023C256.07 47.5441 256.293 47.0965 256.293 46.6246V43.266Z" fill="white"/>
<path d="M181.958 55.9854C181.144 55.9854 180.485 55.3258 180.485 54.5121V12.1951C180.485 11.3814 181.144 10.7218 181.958 10.7218H188.234C188.815 10.7218 189.342 11.0634 189.579 11.5939L203.182 42.0248C203.704 43.1924 205.364 43.186 205.877 42.0144L219.19 11.6042C219.424 11.0682 219.954 10.7218 220.539 10.7218H226.491C227.304 10.7218 227.964 11.3814 227.964 12.1951V54.5121C227.964 55.3258 227.304 55.9854 226.491 55.9854H221.682C220.869 55.9854 220.209 55.3258 220.209 54.5121V32.2999C220.209 30.6703 217.955 30.2466 217.363 31.7651L208.293 55.0469C208.073 55.6128 207.528 55.9854 206.921 55.9854H201.774C201.17 55.9854 200.628 55.6173 200.405 55.0564L191.082 31.6081C190.482 30.0991 188.24 30.5285 188.24 32.1524V54.5121C188.24 55.3258 187.58 55.9854 186.766 55.9854H181.958Z" fill="white"/>
<path d="M143.025 55.9854C142.211 55.9854 141.552 55.3258 141.552 54.5121V50.425C141.552 49.9425 141.792 49.488 142.187 49.2109C156.851 38.9228 164.183 30.419 164.183 23.6995C164.183 19.6901 161.44 17.6854 155.954 17.6854C152.147 17.6854 148.518 18.4656 145.067 20.026C144.039 20.4905 142.818 19.7722 142.818 18.6446V14.4708C142.818 13.9181 143.126 13.4091 143.625 13.1718C147.504 11.3275 151.614 10.4053 155.954 10.4053C167.032 10.4053 172.572 14.8367 172.572 23.6995C172.572 30.6962 167.717 38.1165 158.007 45.9605C156.899 46.8554 157.512 48.7053 158.937 48.7053H171.098C171.912 48.7053 172.572 49.3649 172.572 50.1786V54.5121C172.572 55.3258 171.912 55.9854 171.098 55.9854H143.025Z" fill="white"/>
<path d="M99.3408 12.9441C98.7611 11.9619 99.4691 10.7218 100.61 10.7218H106.204C106.728 10.7218 107.212 11.0001 107.476 11.4526L118.463 30.282C119.04 31.2713 120.476 31.2524 121.027 30.2481L131.32 11.4865C131.578 11.0149 132.074 10.7218 132.611 10.7218H137.918C139.046 10.7218 139.756 11.9383 139.2 12.9204L123.985 39.8214C123.86 40.0427 123.794 40.2926 123.794 40.5468V54.5121C123.794 55.3258 123.135 55.9854 122.321 55.9854H116.88C116.066 55.9854 115.406 55.3258 115.406 54.5121V40.5614C115.406 40.2979 115.336 40.0393 115.202 39.8124L99.3408 12.9441Z" fill="white"/>
<path fill-rule="evenodd" clip-rule="evenodd" d="M15.3981 2.0682C31.9736 -0.689401 48.8944 -0.689401 65.4738 2.0682C74.9542 3.80781 81.0314 10.1283 81.0314 18.1885V46.5511C81.0314 54.6569 74.9542 60.9774 65.5536 62.7588C57.277 64.1338 48.906 64.8251 40.5157 64.8251C32.1516 64.8136 23.8073 64.1072 15.5575 62.7207C5.91383 60.6545 0 54.6149 0 46.513V18.1505C0 10.1701 5.91767 4.05099 15.3981 2.0682ZM29.5427 26.3818C29.5427 24.5637 31.0165 23.0899 32.8346 23.0899C34.6526 23.0899 36.1265 24.5637 36.1265 26.3818V36.5223C36.1265 38.3404 34.6526 39.8142 32.8346 39.8142C31.0165 39.8142 29.5427 38.3404 29.5427 36.5223V26.3818ZM48.1968 12.1547C46.3788 12.1547 44.9049 13.6286 44.9049 15.4466V47.4575C44.9049 49.2756 46.3788 50.7494 48.1968 50.7494C50.0149 50.7494 51.4888 49.2756 51.4888 47.4575V15.4466C51.4888 13.6286 50.0149 12.1547 48.1968 12.1547ZM14.1805 20.5924C14.1805 18.7744 15.6543 17.3005 17.4724 17.3005C19.2905 17.3005 20.7643 18.7744 20.7643 20.5924V42.3114C20.7643 44.1295 19.2905 45.6033 17.4724 45.6033C15.6543 45.6033 14.1805 44.1295 14.1805 42.3114V20.5924ZM63.559 26.3063C61.7409 26.3063 60.2671 27.7801 60.2671 29.5982V33.3063C60.2671 35.1244 61.7409 36.5982 63.559 36.5982C65.377 36.5982 66.8509 35.1243 66.8509 33.3063V29.5982C66.8509 27.7801 65.377 26.3063 63.559 26.3063Z" fill="#E93636"/>
</svg>
